<?xml version="1.0" encoding="utf-8"?>
<!-- Generator: Adobe Illustrator 16.0.0, SVG Export Plug-In . SVG Version: 6.00 Build 0)  -->
<!DOCTYPE svg PUBLIC "-//W3C//DTD SVG 1.1//EN" "http://www.w3.org/Graphics/SVG/1.1/DTD/svg11.dtd">
<svg version="1.1" id="Layer_1" xmlns="http://www.w3.org/2000/svg" xmlns:xlink="http://www.w3.org/1999/xlink" x="0px" y="0px"
	 width="110px" height="200px" viewBox="0 0 110 200" enable-background="new 0 0 110 200" xml:space="preserve">
<rect display="none" fill="#ED1C24" width="118.08" height="160.001"/>
<rect x="19" y="70" display="none" fill="#00A651" width="19" height="19"/>
<rect x="57" y="70" display="none" fill="#00A651" width="19" height="19"/>
<rect y="89" display="none" fill="#00A651" width="19" height="19"/>
<rect x="19" y="108" display="none" fill="#00A651" width="19" height="19"/>
<rect x="38" y="89" display="none" fill="#00A651" width="19" height="19"/>
<rect x="57" y="108" display="none" fill="#00A651" width="19" height="19"/>
<rect x="76" y="89" display="none" fill="#00A651" width="19" height="19"/>
<rect y="8" fill="#1A191A" width="30" height="4"/>
<rect fill="#1A191A" width="30" height="4"/>
<rect y="16" fill="#1A191A" width="30" height="4"/>
<rect x="31" y="8" fill="#FFFFFF" width="30" height="4"/>
<rect x="31" fill="#FFFFFF" width="30" height="4"/>
<rect x="31" y="16" fill="#FFFFFF" width="30" height="4"/>
<path fill="#1A191A" d="M85,20.615l-5.738-5.74c1.065-1.532,1.696-3.391,1.696-5.396C80.958,4.253,76.706,0,71.479,0
	C66.252,0,62,4.253,62,9.479c0,5.225,4.252,9.478,9.479,9.478c2.004,0,3.861-0.631,5.396-1.696L82.613,23L85,20.615z M65.374,9.479
	c0-3.366,2.737-6.104,6.104-6.104c3.365,0,6.104,2.738,6.104,6.104c0,3.365-2.738,6.103-6.104,6.103
	C68.111,15.582,65.374,12.844,65.374,9.479"/>
<path fill="#FFFFFF" d="M109,20.615l-5.738-5.74c1.065-1.533,1.695-3.392,1.695-5.397c0-5.225-4.252-9.478-9.479-9.478
	C90.251,0,86,4.253,86,9.478c0,5.226,4.252,9.479,9.479,9.479c2.004,0,3.863-0.63,5.396-1.697l5.738,5.74L109,20.615z M89.374,9.478
	c0-3.366,2.737-6.103,6.104-6.103c3.365,0,6.104,2.737,6.104,6.103c0,3.365-2.738,6.104-6.104,6.104
	C92.111,15.582,89.374,12.843,89.374,9.478"/>
<path fill="#BABABA" d="M74,39c-1.072,0-2,0.938-2,2c0,1.061,0.928,2,2,2c1.07,0,2-0.939,2-2C76,39.938,75.07,39,74,39"/>
<path fill="#BABABA" d="M72,27v3c6.99-0.052,12.84,6,13,13h3C87.84,34.359,80.992,27.009,72,27"/>
<path fill="#BABABA" d="M72,33v3c3.803,0.112,6.887,3.23,7,7h3C81.836,37.569,77.475,33.161,72,33"/>
<path fill="#BABABA" d="M38.535,34.802c0,0,1.293-1.257,1.298-3.943c0-3.38-4.841-3.859-4.841-3.859h-6.86l0.01,17h8.616
	c0,0,4.374-0.657,4.374-5.256C41.133,35.435,38.643,34.89,38.535,34.802 M32.041,30.859h1.298c1.055,0,2.599,0.032,2.599,1.314
	c0,1.351-0.986,1.315-2.599,1.315h-1.298V30.859z M34.638,40.058H32.04V37.43h2.598c1.54,0.016,2.61,0.181,2.598,1.314
	C37.221,40.085,36.093,40.058,34.638,40.058"/>
<path fill="#BABABA" d="M68,29.013c-0.768,0.518-1.882,1.146-2.93,0.659c0.934-0.531,1.883-0.969,1.953-1.991
	c-0.92-0.044-1.781,0.96-2.498,0.675C63.702,27.521,62.529,27,61.23,27c-2.492,0-4.514,1.922-4.514,4.292
	c0,0.336,0.04,0.664,0.116,0.978c-3.75-0.179-7.076-1.888-9.302-4.485c-0.388,0.634-0.611,1.372-0.611,2.158
	c0,1.489,0.797,2.803,2.008,3.572c-0.74-0.022-1.436-0.215-2.044-0.537c-0.001,0.018-0.001,0.036-0.001,0.054
	c0,2.079,1.556,3.814,3.621,4.208c-0.378,0.099-0.777,0.15-1.189,0.15c-0.292,0-0.573-0.027-0.849-0.077
	c0.574,1.705,2.242,2.946,4.217,2.981c-1.544,1.151-3.491,1.836-5.605,1.836c-0.364,0-0.724-0.02-1.078-0.06
	c1.998,1.221,4.37,1.93,6.919,1.93c8.302,0,12.843-6.539,12.843-12.21c0-0.186-0.006-0.372-0.015-0.556
	C66.629,30.629,67.838,30.177,68,29.013"/>
<path fill="#BABABA" d="M9,45.004v-7.997H6v-3.998h3V29.01c0-2.455,1.015-4.006,4.458-4.006c1.394,0,3.542,0.008,3.542,0.008
	l-1,3.999h-2c-1.242,0-1-0.009-1,1v2.999h3v3.998h-3v7.997L9,45.004L9,45.004z"/>
<path fill="#FFFFFF" d="M74,62c-1.072,0-2,0.938-2,2c0,1.061,0.928,2,2,2c1.07,0,2-0.939,2-2C76,62.938,75.07,62,74,62"/>
<path fill="#FFFFFF" d="M72,50v3c6.99-0.052,12.839,6,13,13h3C87.839,57.36,80.993,50.009,72,50"/>
<path fill="#FFFFFF" d="M72,56v3c3.803,0.112,6.887,3.23,7,7h3C81.836,60.57,77.475,56.161,72,56"/>
<path fill="#FFFFFF" d="M38.536,57.802c0,0,1.293-1.257,1.297-3.943c0-3.38-4.84-3.858-4.84-3.858h-6.86l0.01,17h8.616
	c0,0,4.375-0.657,4.375-5.256C41.133,58.435,38.643,57.89,38.536,57.802 M32.04,53.858h1.298c1.055,0,2.599,0.032,2.599,1.314
	c0,1.351-0.985,1.315-2.599,1.315H32.04V53.858z M34.638,63.058H32.04V60.43h2.598c1.541,0.017,2.611,0.181,2.598,1.314
	C37.221,63.085,36.093,63.058,34.638,63.058"/>
<path fill="#FFFFFF" d="M68,52.013c-0.766,0.517-1.882,1.145-2.93,0.66c0.933-0.532,1.884-0.971,1.953-1.991
	c-0.918-0.046-1.78,0.959-2.496,0.674C63.702,50.522,62.531,50,61.232,50c-2.494,0-4.515,1.921-4.515,4.292
	c0,0.336,0.04,0.664,0.116,0.978c-3.751-0.179-7.077-1.888-9.303-4.485c-0.389,0.634-0.611,1.372-0.611,2.158
	c0,1.489,0.797,2.803,2.008,3.572c-0.74-0.021-1.436-0.215-2.044-0.537c0,0.019,0,0.036,0,0.055c0,2.079,1.555,3.814,3.62,4.208
	c-0.378,0.098-0.777,0.152-1.189,0.152c-0.291,0-0.573-0.028-0.85-0.078c0.575,1.705,2.242,2.946,4.217,2.981
	c-1.544,1.15-3.492,1.836-5.606,1.836c-0.364,0-0.724-0.021-1.076-0.059C47.997,66.291,50.371,67,52.918,67
	c8.303,0,12.842-6.54,12.842-12.21c0-0.187-0.004-0.372-0.013-0.556C66.63,53.629,67.839,53.177,68,52.013"/>
<path fill="#FFFFFF" d="M9,68.004v-7.997H6v-3.998h3V52.01c0-2.455,1.016-4.006,4.458-4.006c1.395,0,3.542,0.008,3.542,0.008
	l-1,3.999h-2c-1.242,0-1-0.009-1,1v2.999h3v3.998h-3v7.997L9,68.004L9,68.004z"/>
<path fill="#FFFFFF" d="M61.566,82.972c-0.81,0-1.463,0.654-1.463,1.463c0,0.807,0.653,1.462,1.463,1.462
	c0.809,0,1.463-0.655,1.463-1.462C63.029,83.626,62.375,82.972,61.566,82.972"/>
<path fill="#FFFFFF" d="M60,74v2.26c5.324,0.121,9.619,4.414,9.74,9.74H72C71.877,79.426,66.572,74.121,60,74"/>
<path fill="#FFFFFF" d="M60,78.424v2.316c2.867,0.086,5.174,2.392,5.26,5.26h2.316C67.453,81.868,64.131,78.547,60,78.424"/>
<path fill="#FFFFFF" d="M31,79c0,0,0.996-0.956,1-3c0-2.571-4-3-4-3h-5v12.999h6.633c0,0,3.367-0.499,3.367-3.999
	C33,79.482,31.083,79.067,31,79 M26,76h1c0.812,0,2,0.024,2,1c0,1.028-0.759,1-2,1h-1V76z M28,83h-2v-2h2
	c1.187,0.013,2.011,0.139,2,1C29.988,83.021,29.12,83,28,83"/>
<path fill="#FFFFFF" d="M56,74.541c-0.625,0.261-1.299,0.437-2.004,0.517c0.721-0.407,1.422-1.7,1.004-2.058
	c-0.674,0.376-0.891,0.89-1.684,1.037c-0.637-0.637-1.543-1.036-2.547-1.036c-1.926,0-3.488,1.47-3.488,3.282
	c0,0.257,0.031,0.507,0.09,0.748c-2.896-0.138-5.467-1.444-7.188-3.43c-0.301,0.485-0.473,1.049-0.473,1.649
	c0,1.139,0.615,2.145,1.551,2.732c-0.57-0.018-1.109-0.165-1.578-0.41c0,0.013,0,0.026,0,0.041c0,1.59,1.201,2.916,2.797,3.217
	c-0.293,0.075-0.602,0.115-0.918,0.115c-0.227,0-0.445-0.021-0.658-0.06c0.445,1.305,1.732,2.253,3.26,2.279
	c-1.195,0.88-2.699,1.405-4.332,1.405c-0.281,0-0.559-0.017-0.832-0.046C40.543,85.457,42.377,86,44.346,86
	c6.416,0,9.924-5,9.924-9.336c0-0.142-0.002-0.284-0.01-0.424C54.941,75.777,55.965,75.407,56,74.541"/>
<path fill="#FFFFFF" d="M7,87v-5.997H5v-2.998h2v-2.738C7,73.398,8.203,72,10.802,72C11.854,72,13,72.008,13,72.008v2.999h-2
	c-0.937,0-1,0.231-1,1v1.999l3-0.131v3.129h-3V87H7z"/>
<path fill="#828281" d="M61.564,101.973c-0.808,0-1.463,0.653-1.463,1.463c0,0.807,0.655,1.461,1.463,1.461
	c0.81,0,1.463-0.654,1.463-1.461C63.027,102.626,62.374,101.973,61.564,101.973"/>
<path fill="#828281" d="M59.999,93v2.26c5.325,0.121,9.621,4.414,9.741,9.74h2.259C71.878,98.426,66.57,93.121,59.999,93"/>
<path fill="#828281" d="M59.999,97.424v2.316c2.868,0.086,5.174,2.392,5.263,5.26h2.315C67.452,100.868,64.13,97.547,59.999,97.424"
	/>
<path fill="#828281" d="M31,98c0,0,0.996-0.955,1-3c0-2.571-4-3-4-3h-5v13h6.632c0,0,3.368-0.5,3.368-4
	C33,98.482,31.083,98.068,31,98 M26,95h1c0.811,0,2,0.025,2,1c0,1.029-0.759,1-2,1h-1V95z M28,102h-2v-2h2
	c1.186,0.014,2.01,0.139,2,1C29.988,102.021,29.12,102,28,102"/>
<path fill="#828281" d="M56,93.541c-0.625,0.261-1.297,0.437-2.002,0.517C54.717,93.651,55.42,92.358,55,92
	c-0.674,0.376-0.89,0.89-1.684,1.037c-0.636-0.637-1.543-1.036-2.546-1.036c-1.927,0-3.488,1.47-3.488,3.281
	c0,0.258,0.031,0.508,0.091,0.749c-2.898-0.138-5.469-1.444-7.188-3.43c-0.302,0.484-0.474,1.049-0.474,1.649
	c0,1.139,0.617,2.143,1.553,2.732c-0.572-0.018-1.11-0.165-1.58-0.41c0,0.013,0,0.026,0,0.041c0,1.59,1.201,2.916,2.798,3.217
	c-0.293,0.075-0.601,0.115-0.919,0.115c-0.225,0-0.443-0.021-0.657-0.06c0.444,1.305,1.731,2.254,3.259,2.279
	c-1.193,0.881-2.697,1.406-4.332,1.406c-0.281,0-0.559-0.019-0.832-0.047c1.545,0.932,3.377,1.475,5.346,1.475
	c6.416,0,9.925-5,9.925-9.336c0-0.142-0.003-0.284-0.011-0.424C54.941,94.777,55.967,94.407,56,93.541"/>
<path fill="#828281" d="M7,106v-5.998H5v-2.998h2v-2.738C7,92.398,8.203,91,10.801,91C11.853,91,13,91.007,13,91.007v2.998h-2
	c-0.937,0-1,0.231-1,1v1.999l3-0.131v3.128h-3V106H7z"/>
<path fill="#1A191A" d="M61.566,120.973c-0.809,0-1.463,0.652-1.463,1.463c0,0.807,0.654,1.461,1.463,1.461s1.463-0.654,1.463-1.461
	C63.029,121.625,62.375,120.973,61.566,120.973"/>
<path fill="#1A191A" d="M60,112v2.259c5.325,0.121,9.621,4.414,9.741,9.741H72C71.879,117.425,66.572,112.121,60,112"/>
<path fill="#1A191A" d="M60,116.424v2.316c2.868,0.085,5.174,2.391,5.262,5.26h2.316C67.453,119.868,64.131,116.547,60,116.424"/>
<path fill="#1A191A" d="M31,117c0,0,0.996-0.956,1-3c0-2.572-4-3-4-3h-5v12.999h6.632c0,0,3.368-0.499,3.368-3.999
	C33,117.482,31.083,117.066,31,117 M26,114h1c0.811,0,2,0.023,2,1c0,1.027-0.759,1-2,1h-1V114z M28,121h-2v-2h2
	c1.186,0.012,2.01,0.139,2,1C29.988,121.021,29.12,121,28,121"/>
<path fill="#1A191A" d="M56,112.541c-0.625,0.261-1.297,0.438-2.002,0.518c0.719-0.408,1.422-1.701,1.002-2.058
	c-0.674,0.376-0.89,0.89-1.684,1.037c-0.636-0.638-1.543-1.036-2.546-1.036c-1.927,0-3.488,1.471-3.488,3.282
	c0,0.257,0.031,0.507,0.091,0.748c-2.898-0.138-5.469-1.444-7.188-3.431c-0.302,0.485-0.474,1.049-0.474,1.649
	c0,1.14,0.617,2.144,1.553,2.731c-0.572-0.018-1.11-0.166-1.58-0.409c0,0.013,0,0.026,0,0.041c0,1.59,1.201,2.916,2.798,3.217
	c-0.293,0.075-0.601,0.114-0.919,0.114c-0.225,0-0.443-0.021-0.657-0.06c0.444,1.304,1.731,2.253,3.259,2.279
	c-1.193,0.88-2.697,1.403-4.332,1.403c-0.281,0-0.559-0.016-0.832-0.045c1.545,0.932,3.377,1.475,5.346,1.475
	c6.416,0,9.925-5,9.925-9.336c0-0.143-0.003-0.284-0.011-0.424C54.941,113.775,55.967,113.407,56,112.541"/>
<path fill="#1A191A" d="M7,125v-5.997H5v-2.998h2v-2.737C7,111.398,8.203,110,10.801,110c1.052,0,2.199,0.008,2.199,0.008v2.998h-2
	c-0.937,0-1,0.232-1,1v1.999l3-0.13v3.128h-3V125H7z"/>
<rect x="4.993" y="125.817" transform="matrix(0.7071 -0.7071 0.7071 0.7071 -92.5003 43.6962)" fill="#1A191A" width="3.005" height="15.379"/>
<rect x="-1.188" y="131.998" transform="matrix(0.7071 -0.7071 0.7071 0.7071 -92.4935 43.6958)" fill="#1A191A" width="15.377" height="3.006"/>
<rect x="18.993" y="125.816" transform="matrix(0.7069 -0.7073 0.7073 0.7069 -88.418 53.6211)" fill="#FFFFFF" width="3.006" height="15.379"/>
<rect x="12.833" y="131.997" transform="matrix(0.7071 -0.7071 0.7071 0.7071 -88.389 53.5964)" fill="#FFFFFF" width="15.343" height="3"/>
<path fill="#818181" d="M44,142.234l-4.243-4.24c0.789-1.133,1.254-2.508,1.254-3.989c0-3.862-3.143-7.005-7.005-7.005
	c-3.863,0-7.006,3.143-7.006,7.005s3.143,7.007,7.006,7.007c1.481,0,2.855-0.466,3.988-1.255L42.237,144L44,142.234z
	 M29.495,134.005c0-2.487,2.023-4.512,4.512-4.512c2.488,0,4.511,2.024,4.511,4.512c0,2.488-2.023,4.513-4.511,4.513
	C31.518,138.518,29.495,136.493,29.495,134.005"/>
<path fill="#1A191A" d="M62,142.234l-4.242-4.24c0.789-1.133,1.256-2.508,1.256-3.989c0-3.862-3.144-7.005-7.007-7.005
	c-3.863,0-7.006,3.143-7.006,7.005s3.143,7.007,7.006,7.007c1.481,0,2.855-0.466,3.989-1.255l4.24,4.243L62,142.234z
	 M47.495,134.005c0-2.487,2.023-4.512,4.512-4.512c2.488,0,4.511,2.024,4.511,4.512c0,2.488-2.022,4.513-4.511,4.513
	C49.518,138.518,47.495,136.493,47.495,134.005"/>
<path fill="#B3B3B3" d="M81,134v7h3v2h1l2-2h4v-7H81z M89,139h-6v-1h6V139z M89,137h-6v-1h6V137z"/>
<path fill="#B3B3B3" d="M87,127c-3.312,0-6,3.001-6,3.001S83.688,133,87,133s6-2.999,6-2.999S90.312,127,87,127 M87,132.284
	c-1.294,0-2.343-1.022-2.343-2.283c0-1.263,1.049-2.284,2.343-2.284c1.295,0,2.346,1.021,2.346,2.284
	C89.346,131.262,88.295,132.284,87,132.284"/>
<path fill="#B3B3B3" d="M87.73,130c0,0.421-0.326,0.764-0.73,0.764c-0.402,0-0.729-0.343-0.729-0.764s0.326-0.762,0.729-0.762
	C87.404,129.238,87.73,129.579,87.73,130"/>
<g>
	<path fill="#828281" d="M84.234,100.905c-0.48,2.478-1.068,4.854-2.805,6.095c-0.537-3.745,0.788-6.559,1.401-9.545
		c-1.048-1.736,0.125-5.23,2.337-4.369c2.723,1.059-2.355,6.457,1.053,7.129c3.559,0.703,5.012-6.075,2.805-8.279
		c-3.188-3.184-9.279-0.072-8.531,4.485c0.182,1.114,1.354,1.452,0.468,2.99c-2.041-0.446-2.647-2.029-2.571-4.14
		c0.127-3.456,3.157-5.875,6.194-6.21c3.843-0.423,7.449,1.388,7.944,4.945c0.562,4.015-1.732,8.361-5.842,8.051
		C85.574,101.97,85.107,101.428,84.234,100.905z"/>
</g>
<g>
	<path fill="#FFFFFF" d="M84.234,81.905c-0.48,2.478-1.068,4.854-2.805,6.095c-0.537-3.745,0.788-6.559,1.401-9.545
		c-1.048-1.736,0.125-5.23,2.337-4.369c2.723,1.059-2.355,6.456,1.053,7.129c3.559,0.703,5.012-6.074,2.805-8.279
		c-3.188-3.184-9.279-0.072-8.531,4.485c0.182,1.114,1.354,1.452,0.468,2.989c-2.041-0.445-2.647-2.028-2.571-4.139
		c0.127-3.457,3.157-5.876,6.194-6.211c3.843-0.423,7.449,1.389,7.944,4.945c0.562,4.015-1.732,8.361-5.842,8.05
		C85.574,82.97,85.107,82.428,84.234,81.905z"/>
</g>
<path fill="#FFFFFF" d="M80,142.234l-4.242-4.24c0.789-1.133,1.256-2.508,1.256-3.989c0-3.862-3.145-7.005-7.007-7.005
	S63,130.143,63,134.005s3.145,7.007,7.007,7.007c1.481,0,2.854-0.466,3.989-1.255l4.24,4.243L80,142.234z M65.495,134.005
	c0-2.487,2.022-4.512,4.512-4.512c2.487,0,4.511,2.024,4.511,4.512c0,2.488-2.022,4.513-4.511,4.513
	C67.518,138.518,65.495,136.493,65.495,134.005"/>
<path fill="#7F7F7F" d="M98.982,44l-0.805-0.771c-0.247-0.238-6.058-5.869-6.058-10.582C92.12,28.981,95.206,26,99,26
	s6.88,2.981,6.88,6.647c0,4.966-5.83,10.372-6.078,10.6L98.982,44z M99,28.372c-2.485,0-4.507,1.918-4.507,4.275
	c0,2.618,2.778,6.165,4.521,8.044c1.738-1.819,4.493-5.285,4.493-8.044C103.508,30.29,101.486,28.372,99,28.372"/>
<path fill-rule="evenodd" clip-rule="evenodd" fill="#7F7F7F" d="M99,30.623c1.246,0,2.257,1.01,2.257,2.257
	c0,1.246-1.011,2.256-2.257,2.256s-2.257-1.01-2.257-2.256C96.743,31.633,97.754,30.623,99,30.623"/>
</svg>
