<?xml version="1.0" encoding="utf-8"?>
<!-- Generator: Adobe Illustrator 16.0.0, SVG Export Plug-In . SVG Version: 6.00 Build 0)  -->
<!DOCTYPE svg PUBLIC "-//W3C//DTD SVG 1.1//EN" "http://www.w3.org/Graphics/SVG/1.1/DTD/svg11.dtd">
<svg version="1.1" id="Layer_1" xmlns="http://www.w3.org/2000/svg" xmlns:xlink="http://www.w3.org/1999/xlink" x="0px" y="0px"
	 width="164px" height="36px" viewBox="0 0 164 36" enable-background="new 0 0 164 36" xml:space="preserve">
<path fill="#1A191A" d="M25,30.992l-3.199-8.072H5.928L3,30.992H0L12.268-0.005L16-0.007l12,31H25z M14,2.993l-7,17h14L14,2.993z"/>
<path fill="#1A191A" d="M31,30.992v-31l11.399,0.002c5.756,0,9.038,4.102,9.038,8.887c0,4.784-3.726,9.111-9.437,9.111H34v13H31z
	 M48.739,8.882c0-3.828-2.782-5.89-6.74-5.89H34v12H42C45.958,14.992,48.739,12.711,48.739,8.882"/>
<polygon fill="#1A191A" points="63,30.992 63,2.993 54,2.993 54,-0.007 75,-0.007 75,2.993 66,2.993 66,30.992 "/>
<polygon fill="#1A191A" points="78,30.992 86,30.992 86,6.993 100,6.993 100,-0.007 78,-0.007 "/>
<polygon fill="#1A191A" points="131,30.992 131,-0.007 123.166,-0.005 111,17.993 111.025,-0.005 103,-0.007 103,30.992 111,30.992 
	123,11.993 123,30.992 "/>
<polygon fill="#1A191A" points="161,-0.007 149.773,-0.005 149.773,6.832 154,6.993 154,23.992 150,23.992 150,30.992 156,30.992 
	156,35.992 164.006,36 164,23.992 161,23.992 "/>
<polygon fill="#1A191A" points="140,-0.007 152.25,-0.005 152.25,6.832 146,6.993 144,23.992 152,23.992 152,30.992 142,30.992 
	142,35.992 134,35.992 134,23.992 137,23.992 "/>
</svg>
