<?xml version="1.0" encoding="utf-8"?>
<!-- Generator: Adobe Illustrator 16.0.0, SVG Export Plug-In . SVG Version: 6.00 Build 0)  -->
<!DOCTYPE svg PUBLIC "-//W3C//DTD SVG 1.1//EN" "http://www.w3.org/Graphics/SVG/1.1/DTD/svg11.dtd">
<svg version="1.1" id="Layer_1" xmlns="http://www.w3.org/2000/svg" xmlns:xlink="http://www.w3.org/1999/xlink" x="0px" y="0px"
	 width="36px" height="164px" viewBox="0 0 36 164" enable-background="new 0 0 36 164" xml:space="preserve">
<path fill="#FFFFFF" d="M30.993,139.003l-8.072,3.198v15.873l8.072,2.929v3l-30.997-12.269l-0.002-3.731l30.999-12V139.003z
	 M2.994,150.003l16.999,7v-14L2.994,150.003z"/>
<path fill="#FFFFFF" d="M30.993,133.003h-31l0.002-11.398c0-5.756,4.102-9.038,8.887-9.038c4.784,0,9.11,3.726,9.11,9.437v7.999h13
	V133.003z M8.884,115.264c-3.828,0-5.891,2.781-5.891,6.739v7.999h12v-7.999C14.993,118.045,12.713,115.264,8.884,115.264"/>
<polygon fill="#FFFFFF" points="30.993,101.003 2.994,101.003 2.994,110.003 -0.006,110.003 -0.006,89.003 2.994,89.003 
	2.994,98.003 30.993,98.003 "/>
<polygon fill="#FFFFFF" points="30.993,86.003 30.993,78.003 6.994,78.003 6.994,64.003 -0.006,64.003 -0.006,86.003 "/>
<polygon fill="#FFFFFF" points="30.993,33.003 -0.006,33.003 -0.004,40.837 17.994,53.003 -0.004,52.978 -0.006,61.003 
	30.993,61.003 30.993,53.003 11.994,41.003 30.993,41.003 "/>
<polygon fill="#FFFFFF" points="-0.006,3.003 -0.004,14.229 6.833,14.229 6.994,10.003 23.993,10.003 23.993,14.003 30.993,14.003 
	30.993,8.003 35.993,8.003 36.001,-0.003 23.993,0.003 23.993,3.003 "/>
<polygon fill="#FFFFFF" points="-0.006,24.003 -0.004,11.753 6.833,11.753 6.994,18.003 23.993,20.003 23.993,12.003 30.993,12.003 
	30.993,22.003 35.993,22.003 35.993,30.003 23.993,30.003 23.993,27.003 "/>
</svg>
